<?xml version="1.0" encoding="utf-8"?>
<!-- Generator: Adobe Illustrator 24.1.2, SVG Export Plug-In . SVG Version: 6.00 Build 0)  -->
<svg version="1.1" baseProfile="tiny" id="隔离模式"
	 xmlns="http://www.w3.org/2000/svg" xmlns:xlink="http://www.w3.org/1999/xlink" x="0px" y="0px" viewBox="0 0 547.7 224.9"
	 overflow="visible" xml:space="preserve">
<polygon fill="#00233E" points="428,87.8 0,132.8 0,45 419,0.9 428,0 "/>
<polygon fill="#FFFFFF" points="547.7,175.1 283.4,202.9 283.4,116.1 547.7,88.3 "/>
<g>
	<path fill="#FFFFFF" d="M19.5,62.1l20.8-2.2c7.8-0.8,13.2,0.6,16.6,3.6c3,2.7,4.6,6.3,4.6,11.6v0.4c0,7.3-3.5,12.4-8.7,15.7
		l10.1,16.9L45.4,110l-7.9-13.9L35,96.3v14.7l-15.5,1.6V62.1z M40,84.3c3.5-0.4,5.7-2.5,5.7-6v-0.4c0-3.6-2.2-5.2-5.6-4.8L35,73.6
		v11.2L40,84.3z"/>
	<path fill="#FFFFFF" d="M65,57.3l15.6-1.6v50.6L65,107.9V57.3z"/>
	<path fill="#FFFFFF" d="M84.6,81.3v-1.4c0-15.3,10.8-26.8,25.1-28.3c7.3-0.8,13,0.9,18.2,4.5l-8.2,12.4c-2.6-2-5.6-3.4-9.3-3
		c-5.7,0.6-10,5.7-10,13.2v0.9c0,8.1,4.3,12,9.8,11.4c2.1-0.2,3.3-0.7,4.2-1.3v-6.1l-6.9,0.7v-11l21.4-2.2v24.8
		c-4.8,4.2-11.4,7.6-19.1,8.4C95.6,105.7,84.6,97.2,84.6,81.3z"/>
	<path fill="#FFFFFF" d="M133,50.2l15.6-1.6v18.2l12.2-1.3V47.3l15.6-1.6v50.6l-15.6,1.6V79.4l-12.2,1.3v18.5l-15.6,1.6V50.2z"/>
	<path fill="#FFFFFF" d="M191.9,57.7L179.6,59V45.3l40.3-4.2v13.7L207.5,56v36.9l-15.6,1.6V57.7z"/>
	<path fill="#FFFFFF" d="M237.4,39.2l15.6-1.6v18.2l12.2-1.3V36.3l15.6-1.6v50.6l-15.6,1.6V68.4L253,69.7v18.5l-15.6,1.6V39.2z"/>
	<path fill="#FFFFFF" d="M285.6,34.2l37.1-3.9v13.3L301,45.8v5.8l20-2.1v12.1l-20,2.1v6.1l22-2.3v13.3l-37.4,3.9V34.2z"/>
	<path fill="#FFFFFF" d="M326.8,29.8l20.8-2.2c7.8-0.8,13.2,0.6,16.6,3.6c3,2.7,4.6,6.3,4.6,11.6v0.4c0,7.3-3.5,12.4-8.7,15.7
		l10.1,16.9l-17.5,1.8l-7.9-13.9l-2.5,0.3v14.7l-15.5,1.6V29.8z M347.4,52c3.5-0.4,5.7-2.5,5.7-6v-0.4c0-3.6-2.2-5.2-5.6-4.8
		l-5.1,0.5v11.2L347.4,52z"/>
	<path fill="#FFFFFF" d="M372.2,25.1l37.1-3.9v13.3l-21.6,2.3v5.8l20-2.1v12.1l-20,2.1v6.1l22-2.3v13.3l-37.4,3.9V25.1z"/>
</g>
<polygon fill="#00233E" points="269.7,205.5 99.6,223.3 99.6,135.5 266.1,118 269.7,117.7 "/>
<g>
	<path fill="#FFFFFF" d="M119,152.7l36.3-3.8v13.7l-20.7,2.2v6.6l19.1-2v12.7l-19.1,2v17.5l-15.6,1.6V152.7z"/>
	<path fill="#FFFFFF" d="M157.5,174.7v-1.3c0-15.2,10.1-26.9,24-28.3c13.9-1.5,24,8,24,23.1v1.3c0,15.2-10.2,26.9-24.1,28.3
		S157.5,189.8,157.5,174.7z M189.6,171.1V170c0-7.5-3.2-11.6-8.2-11.1c-5,0.5-8.2,5.2-8.2,12.7v1.1c0,7.5,3.2,11.6,8.2,11.1
		C186.5,183.3,189.6,178.6,189.6,171.1z"/>
	<path fill="#FFFFFF" d="M209.3,143.2l20.8-2.2c7.8-0.8,13.2,0.6,16.6,3.6c3,2.7,4.6,6.3,4.6,11.6v0.4c0,7.3-3.5,12.4-8.7,15.7
		l10.1,16.9l-17.5,1.8l-7.9-13.9l-2.5,0.3v14.7l-15.5,1.6V143.2z M229.9,165.4c3.5-0.4,5.7-2.5,5.7-6V159c0-3.6-2.2-5.2-5.6-4.8
		l-5.1,0.5v11.2L229.9,165.4z"/>
</g>
<g>
	<path fill="#7AAFDF" d="M303.7,132.7l20.8-2.2c7.8-0.8,13.2,0.6,16.6,3.6c3,2.7,4.6,6.3,4.6,11.6v0.4c0,7.3-3.5,12.4-8.7,15.7
		l10.1,16.9l-17.5,1.8l-7.9-13.9l-2.5,0.3v14.7l-15.5,1.6V132.7z M324.3,154.9c3.5-0.4,5.7-2.5,5.7-6v-0.4c0-3.6-2.2-5.2-5.6-4.8
		l-5.1,0.5v11.2L324.3,154.9z"/>
	<path fill="#7AAFDF" d="M348.7,158.2V128l15.8-1.7v30.3c0,5.1,2.5,7,6.1,6.7s6.1-2.7,6.1-7.7V125l15.8-1.7v29.9
		c0,15.5-8.9,22.6-22,24C357.5,178.6,348.7,173.3,348.7,158.2z"/>
	<path fill="#7AAFDF" d="M396,149v-1.4c0-15.3,10.8-26.8,25.1-28.3c7.3-0.8,13,0.9,18.2,4.5l-8.2,12.4c-2.6-2-5.6-3.4-9.3-3
		c-5.7,0.6-10,5.7-10,13.2v0.9c0,8.1,4.3,12,9.8,11.4c2.1-0.2,3.3-0.7,4.2-1.3v-6.1l-6.9,0.7v-11l21.4-2.2v24.8
		c-4.8,4.2-11.4,7.6-19.1,8.4C407,173.4,396,164.9,396,149z"/>
	<path fill="#7AAFDF" d="M444.4,117.9l23.2-2.4c6.6-0.7,11.2,0.3,14.3,3c1.9,1.7,3.1,4.2,3.1,7.9v0.4c0,5.6-3.3,9.7-8,12.1
		c5.4,1.2,9.4,4.2,9.4,10.9v0.3c0,8.1-6.3,14.8-19.1,16.1l-22.8,2.4V117.9z M469.8,131.4c0-2.5-1.8-3.6-5.1-3.2l-5.1,0.5v7.5
		l5.1-0.5C468,135.4,469.8,133.9,469.8,131.4L469.8,131.4z M465.5,146l-5.9,0.6v7.9l5.9-0.6c3.5-0.4,5.3-2.1,5.3-4.5v-0.1
		C470.8,147,469,145.6,465.5,146z"/>
	<path fill="#7AAFDF" d="M500,144.8l-16-31L501,112l6.9,15.9l7-17.4l16.8-1.8L515.6,143v18l-15.6,1.6V144.8z"/>
</g>
</svg>
